<?xml version="1.0" encoding="utf-8"?><svg xmlns="http://www.w3.org/2000/svg" xmlns:xlink="http://www.w3.org/1999/xlink" width="1920" height="937" preserveAspectRatio="xMidYMid" viewBox="0 0 1920 937" style="z-index:1;margin-right:-2px;display:block;background-repeat-y:initial;background-repeat-x:initial;background-color:rgb(1, 44, 50);animation-play-state:paused" ><g transform="translate(960,468.5) scale(1,1) translate(-960,-468.5)" style="transform:matrix(1, 0, 0, 1, 0, 0);animation-play-state:paused" ><path d="M -100 544.45 C -64.59 547.05 -64.35 550.04 -31.61 550.04 S 4.76 554.34 36.77 554.34 S 72.11 547.36 105.16 547.36 S 140.65 562.76 173.55 562.76 S 208.14 563.58 241.94 563.58 S 276.36 565.95 310.32 565.95 S 346.83 559.01 378.71 559.01 S 414 560.95 447.1 560.95 S 483.48 560.17 515.48 560.17 S 550.49 553.86 583.87 553.86 S 620.12 566.16 652.26 566.16 S 686.96 546.4 720.65 546.4 S 755.81 553.59 789.03 553.59 S 825 553.35 857.42 553.35 S 893.31 547.19 925.81 547.19 S 960.27 549.87 994.19 549.87 S 1030.3 566.56 1062.58 566.56 S 1099.04 566.69 1130.97 566.69 S 1166.26 549.32 1199.35 549.32 S 1234.85 559.17 1267.74 559.17 S 1303.18 549.42 1336.13 549.42 S 1371.59 554.62 1404.52 554.62 S 1439.66 559.34 1472.9 559.34 S 1507.37 562.69 1541.29 562.69 S 1577.07 566.77 1609.68 566.77 S 1645.53 561.3 1678.06 561.3 S 1712.44 554.19 1746.45 554.19 S 1780.74 547.98 1814.84 547.98 S 1850.18 552.81 1883.23 552.81 S 1919.32 557.57 1951.61 557.57 S 1987.79 552.18 2020 552.18 S 2056.07 566.12 2088.39 566.12 L 2020 937 L -100 937 Z" fill="#0f3135" stroke-width="0" transform="matrix(1,0,0,1,0,0)" style="transform:matrix(1, 0, 0, 1, 0, 0);animation-play-state:paused" ></path>
<path d="M -100 580.38 C -63.8 571.21 -62.59 585.23 -29.8 585.23 S 7.45 567.12 40.4 567.12 S 77.09 587.68 110.6 587.68 S 146.59 572.19 180.79 572.19 S 218.14 573.1 250.99 573.1 S 286.94 591.38 321.19 591.38 S 356.57 592.73 391.39 592.73 S 428.63 589.92 461.59 589.92 S 497.83 586.35 531.79 586.35 S 568.72 589.27 601.99 589.27 S 638.61 579.38 672.19 579.38 S 709.59 587.58 742.38 587.58 S 778.84 573.41 812.58 573.41 S 849.36 574.85 882.78 574.85 S 918.48 587.26 952.98 587.26 S 988.68 568.92 1023.18 568.92 S 1058.97 589.37 1093.38 589.37 S 1129.53 575.6 1163.58 575.6 S 1200.55 580.51 1233.77 580.51 S 1269.6 585.25 1303.97 585.25 S 1340.27 584.48 1374.17 584.48 S 1410.53 580.95 1444.37 580.95 S 1480.74 579.77 1514.57 579.77 S 1550.61 580.9 1584.77 580.9 S 1620.27 583.63 1654.97 583.63 S 1690.83 566.92 1725.17 566.92 S 1760.53 586.85 1795.36 586.85 S 1831.23 590.1 1865.56 590.1 S 1902.84 580.42 1935.76 580.42 S 1971.46 572.5 2005.96 572.5 S 2042.96 585.71 2076.16 585.71 L 2020 937 L -100 937 Z" fill="#254346" stroke-width="0" transform="matrix(1,0,0,1,1.1340199708938599,0)" style="transform:matrix(1, 0, 0, 1, 1.13402, 0);animation-play-state:paused" ></path>
<path d="M -100 610.54 C -63.15 607.08 -63.83 594.54 -27.89 594.54 S 8.52 612.15 44.22 612.15 S 81.29 616.86 116.33 616.86 S 154.43 595.69 188.44 595.69 S 225.13 604.09 260.54 604.09 S 296.68 598.32 332.65 598.32 S 369.42 618.3 404.76 618.3 S 441.69 599.98 476.87 599.98 S 514.21 606.1 548.98 606.1 S 587.19 617.02 621.09 617.02 S 658.57 622 693.2 622 S 729.32 595.78 765.31 595.78 S 802.78 617.71 837.41 617.71 S 874.68 603.54 909.52 603.54 S 946.35 613.16 981.63 613.16 S 1019.66 604.88 1053.74 604.88 S 1090.97 620.37 1125.85 620.37 S 1163.83 591.15 1197.96 591.15 S 1235.55 612.34 1270.07 612.34 S 1306.29 592.15 1342.18 592.15 S 1378.65 614.31 1414.29 614.31 S 1451.93 594.75 1486.39 594.75 S 1524.26 616.4 1558.5 616.4 S 1594.96 606.6 1630.61 606.6 S 1667.64 606.42 1702.72 606.42 S 1740.39 612.54 1774.83 612.54 S 1812.38 605.01 1846.94 605.01 S 1883.96 610.6 1919.05 610.6 S 1957.04 603.47 1991.16 603.47 S 2029.16 609.67 2063.27 609.67 L 2020 937 L -100 937 Z" fill="#3b5658" stroke-width="0" transform="matrix(1,0,0,1,3.5863146781921387,0)" style="transform:matrix(1, 0, 0, 1, 3.58631, 0);animation-play-state:paused" ></path>
<path d="M -100 622.26 C -61.5 632.47 -60.85 629.57 -25.87 629.57 S 11.92 634.71 48.25 634.71 S 87 645.09 122.38 645.09 S 159.91 614.42 196.5 614.42 S 235.77 629.38 270.63 629.38 S 308.83 616.12 344.76 616.12 S 383.49 640.86 418.88 640.86 S 456.52 629.88 493.01 629.88 S 531.37 639.03 567.13 639.03 S 605.03 632.62 641.26 632.62 S 680.17 649.66 715.38 649.66 S 753.95 627.2 789.51 627.2 S 826.84 630.13 863.64 630.13 S 902.18 634.63 937.76 634.63 S 976.07 643.51 1011.89 643.51 S 1051.22 625.81 1086.01 625.81 S 1125.27 648.45 1160.14 648.45 S 1197.37 629.28 1234.27 629.28 S 1272.2 637.71 1308.39 637.71 S 1346.15 630.07 1382.52 630.07 S 1421.66 636.22 1456.64 636.22 S 1495.1 618.63 1530.77 618.63 S 1568.99 650.76 1604.9 650.76 S 1642.66 616.74 1679.02 616.74 S 1717.77 647.97 1753.15 647.97 S 1790.77 632.5 1827.27 632.5 S 1865.39 632.14 1901.4 632.14 S 1940.3 631.59 1975.52 631.59 S 2013.34 632.38 2049.65 632.38 L 2020 937 L -100 937 Z" fill="#51696b" stroke-width="0" transform="matrix(1,0,0,1,6.4136857986450195,0)" style="transform:matrix(1, 0, 0, 1, 6.41369, 0);animation-play-state:paused" ></path>
<path d="M -100 659.27 C -61.2 649.53 -61.68 669.38 -23.74 669.38 S 16.18 659.78 52.52 659.78 S 92.61 657.25 128.78 657.25 S 166.98 637.81 205.04 637.81 S 244.42 653.51 281.29 653.51 S 321.61 653.3 357.55 653.3 S 395.74 670.22 433.81 670.22 S 473.62 645.33 510.07 645.33 S 550.14 664.9 586.33 664.9 S 626.59 663.65 662.59 663.65 S 701.63 659.01 738.85 659.01 S 777.57 654.28 815.11 654.28 S 853.47 663.2 891.37 663.2 S 929.81 643.47 967.63 643.47 S 1007.45 641.57 1043.88 641.57 S 1082.37 657.2 1120.14 657.2 S 1158.47 677.86 1196.4 677.86 S 1236 638.37 1272.66 638.37 S 1312.24 660.71 1348.92 660.71 S 1388.06 644.34 1425.18 644.34 S 1464.19 674.77 1501.44 674.77 S 1541.78 670.32 1577.7 670.32 S 1615.93 670.42 1653.96 670.42 S 1693.63 659.03 1730.22 659.03 S 1768.43 664.75 1806.47 664.75 S 1846.31 647.53 1882.73 647.53 S 1923.13 659.2 1958.99 659.2 S 1997.19 639.83 2035.25 639.83 L 2020 937 L -100 937 Z" fill="#677d7f" stroke-width="0" transform="matrix(1,0,0,1,8.86598014831543,0)" style="transform:matrix(1, 0, 0, 1, 8.86598, 0);animation-play-state:paused" ></path>
<path d="M -100 700.1 C -60.06 696.64 -60.62 676.6 -21.48 676.6 S 17.88 683.21 57.04 683.21 S 97.38 698.15 135.56 698.15 S 175.43 671.13 214.07 671.13 S 254.66 699.98 292.59 699.98 S 334.06 666.72 371.11 666.72 S 411.6 695.2 449.63 695.2 S 489.12 663.29 528.15 663.29 S 568.26 693.86 606.67 693.86 S 645.98 663.92 685.19 663.92 S 725.82 700.54 763.7 700.54 S 804.2 674.94 842.22 674.94 S 882.64 702.99 920.74 702.99 S 961.29 672.15 999.26 672.15 S 1040.56 696.6 1077.78 696.6 S 1119.32 662.91 1156.3 662.91 S 1197.4 707.33 1234.81 707.33 S 1275.02 669.74 1313.33 669.74 S 1353.22 684.9 1391.85 684.9 S 1431.29 705.6 1470.37 705.6 S 1511.42 706.52 1548.89 706.52 S 1588.2 670.15 1627.41 670.15 S 1668.3 686.93 1705.93 686.93 S 1746.71 670.43 1784.44 670.43 S 1826.02 701.63 1862.96 701.63 S 1904.1 661.73 1941.48 661.73 S 1981.18 698.22 2020 698.22 S 2060.07 665.44 2098.52 665.44 L 2020 937 L -100 937 Z" fill="#7e9193" stroke-width="0" transform="matrix(1,0,0,1,10,0)" style="transform:matrix(1, 0, 0, 1, 10, 0);animation-play-state:paused" ></path>
<path d="M -100 720.73 C -59.14 732.87 -57.61 712.28 -19.08 712.28 S 21.5 686.48 61.83 686.48 S 102.53 734.55 142.75 734.55 S 184.9 727.6 223.66 727.6 S 265.1 729.69 304.58 729.69 S 346.87 687.62 385.5 687.62 S 427.37 727.97 466.41 727.97 S 508.42 705.27 547.33 705.27 S 589.2 732.05 628.24 732.05 S 670.92 729.51 709.16 729.51 S 751.57 734.19 790.08 734.19 S 832.63 717.23 870.99 717.23 S 912.1 732.92 951.91 732.92 S 994.41 697.8 1032.82 697.8 S 1075.45 732.01 1113.74 732.01 S 1156.19 701.24 1194.66 701.24 S 1237.23 731.97 1275.57 731.97 S 1317.86 686.35 1356.49 686.35 S 1398.05 725.34 1437.4 725.34 S 1479.41 701.45 1518.32 701.45 S 1559.26 715.2 1599.24 715.2 S 1639.88 701.06 1680.15 701.06 S 1721.18 728.84 1761.07 728.84 S 1803.86 689.9 1841.98 689.9 S 1883.46 733.64 1922.9 733.64 S 1965.01 690.11 2003.82 690.11 S 2045.23 735.34 2084.73 735.34 L 2020 937 L -100 937 Z" fill="#95a6a7" stroke-width="0" transform="matrix(1,0,0,1,8.86598014831543,0)" style="transform:matrix(1, 0, 0, 1, 8.86598, 0);animation-play-state:paused" ></path>
<path d="M -100 723 C -56.11 729.94 -56.84 751.3 -16.54 751.3 S 26.03 723.44 66.93 723.44 S 109.87 745.92 150.39 745.92 S 192.44 752.54 233.86 752.54 S 277.6 755.25 317.32 755.25 S 360.15 723.7 400.79 723.7 S 443.71 763.56 484.25 763.56 S 526.64 729.31 567.72 729.31 S 610.5 750.8 651.18 750.8 S 695.1 708.02 734.65 708.02 S 777.64 749.7 818.11 749.7 S 861.04 746.67 901.57 746.67 S 945.5 716.87 985.04 716.87 S 1026.92 713.83 1068.5 713.83 S 1112.48 762.17 1151.97 762.17 S 1194.29 708.36 1235.43 708.36 S 1277.63 741.93 1318.9 741.93 S 1362.51 708.06 1402.36 708.06 S 1446.29 743.78 1485.83 743.78 S 1528.35 721.48 1569.29 721.48 S 1612.5 755.14 1652.76 755.14 S 1695.36 719.71 1736.22 719.71 S 1778.46 755.61 1819.69 755.61 S 1862.12 717.17 1903.15 717.17 S 1945.99 747.9 1986.61 747.9 S 2030 746.35 2070.08 746.35 L 2020 937 L -100 937 Z" fill="#adbcbc" stroke-width="0" transform="matrix(1,0,0,1,6.4136857986450195,0)" style="transform:matrix(1, 0, 0, 1, 6.41369, 0);animation-play-state:paused" ></path>
<path d="M -100 747.84 C -55.86 747.69 -56.23 784.75 -13.82 784.75 S 31.06 738.87 72.36 738.87 S 117.28 778.27 158.54 778.27 S 203.18 745.77 244.72 745.77 S 287.94 780.93 330.89 780.93 S 374.25 745.69 417.07 745.69 S 461.64 781.79 503.25 781.79 S 548.04 741.24 589.43 741.24 S 634.11 779.63 675.61 779.63 S 720 745.13 761.79 745.13 S 807.14 787.57 847.97 787.57 S 892.68 774.46 934.15 774.46 S 977.91 781.14 1020.33 781.14 S 1064.7 747.09 1106.5 747.09 S 1151.29 771.87 1192.68 771.87 S 1235.91 751.42 1278.86 751.42 S 1324.06 732.21 1365.04 732.21 S 1409.44 744.21 1451.22 744.21 S 1494.85 770.46 1537.4 770.46 S 1581.51 746.29 1623.58 746.29 S 1667.59 737.45 1709.76 737.45 S 1754.66 777.64 1795.93 777.64 S 1841.16 781.06 1882.11 781.06 S 1926.3 744.05 1968.29 744.05 S 2012.12 778.26 2054.47 778.26 L 2020 937 L -100 937 Z" fill="#c6d2d2" stroke-width="0" transform="matrix(1,0,0,1,3.5863142013549805,0)" style="transform:matrix(1, 0, 0, 1, 3.58631, 0);animation-play-state:paused" ></path>
<path d="M -100 760.26 C -54.02 768.09 -54.88 816.96 -10.92 816.96 S 34.95 755.64 78.15 755.64 S 123.79 809.61 167.23 809.61 S 213.15 761.18 256.3 761.18 S 302.58 759.22 345.38 759.22 S 390.86 759.51 434.45 759.51 S 479.76 804.04 523.53 804.04 S 568.07 818.2 612.61 818.2 S 657.95 812.89 701.68 812.89 S 747.21 817.37 790.76 817.37 S 837.52 817.77 879.83 817.77 S 925.87 769.97 968.91 769.97 S 1015.32 796.58 1057.98 796.58 S 1104.77 761.34 1147.06 761.34 S 1192.61 806.45 1236.13 806.45 S 1282.74 808.29 1325.21 808.29 S 1369.81 798.49 1414.29 798.49 S 1460.25 757.36 1503.36 757.36 S 1549.34 796.46 1592.44 796.46 S 1637.84 803.25 1681.51 803.25 S 1726.46 802.47 1770.59 802.47 S 1816.4 773.43 1859.66 773.43 S 1906.49 818.3 1948.74 818.3 S 1994.82 775.72 2037.82 775.72 L 2020 937 L -100 937 Z" fill="#dfe8e8" stroke-width="0" transform="matrix(1,0,0,1,1.1340198516845703,0)" style="transform:matrix(1, 0, 0, 1, 1.13402, 0);animation-play-state:paused" ></path></g></svg>