<?xml version="1.0" encoding="utf-8"?><svg xmlns="http://www.w3.org/2000/svg" xmlns:xlink="http://www.w3.org/1999/xlink" width="1920" height="937" preserveAspectRatio="xMidYMid" viewBox="0 0 1920 937" style="z-index:1;margin-right:-2px;display:block;background-repeat-y:initial;background-repeat-x:initial;animation-play-state:paused" ><g transform="translate(960,468.5) scale(1,1) translate(-960,-468.5)" style="transform:matrix(1, 0, 0, 1, 0, 0);animation-play-state:paused" ><defs style="animation-play-state:paused" ><linearGradient id="ldbk-photon-l4ahtvscg3c-lg" x1="935" x2="1920" y1="0" y2="0" gradientUnits="userSpaceOnUse" style="animation-play-state:paused" ><stop stop-color="#9342c3" offset="0" style="animation-play-state:paused" ></stop>

    
<stop stop-color="#3b0769" offset="1" style="animation-play-state:paused" ></stop></linearGradient>

  
<mask id="ldbk-photon-l4ahtvscg3c-mask" style="animation-play-state:paused" ><g style="animation-play-state:paused" ><path d="M2220 -0.5 L944.1012078378282 -0.5 A15.5 15.5 0 0 1 944.1012078378282 31.5 L2220 31.5" fill="#fff" transform="matrix(1,0,0,1,32.697269439697266,0)" style="transform:matrix(1, 0, 0, 1, 32.6973, 0);animation-play-state:paused" ></path>
<path d="M1962.8592426670762 -0.5 L1974.7184853341523 -0.5 A15.5 15.5 0 0 1 1974.7184853341523 31.5 L1962.8592426670762 31.5 A15.5 15.5 0 0 1 1962.8592426670762 -0.5" fill="#000" transform="matrix(1,0,0,1,0,0)" opacity="1" style="transform:matrix(1, 0, 0, 1, 0, 0);animation-play-state:paused" ></path>
<path d="M2220 30.5 L919.0579434061091 30.5 A15.5 15.5 0 0 0 919.0579434061091 62.5 L2220 62.5" fill="#fff" transform="matrix(1,0,0,1,-11.37478256225586,0)" style="transform:matrix(1, 0, 0, 1, -11.3748, 0);animation-play-state:paused" ></path>
<path d="M996.2055142410901 30.5 L1012.0349922027275 30.5 A15.5 15.5 0 0 1 1012.0349922027275 62.5 L996.2055142410901 62.5 A15.5 15.5 0 0 1 996.2055142410901 30.5" fill="#fff" transform="matrix(1,0,0,1,0,0)" opacity="1" style="transform:matrix(1, 0, 0, 1, 0, 0);animation-play-state:paused" ></path>
<path d="M2220 61.5 L947.5919198424524 61.5 A15.5 15.5 0 0 1 947.5919198424524 93.5 L2220 93.5" fill="#fff" transform="matrix(1,0,0,1,2.0112357139587402,0)" style="transform:matrix(1, 0, 0, 1, 2.01124, 0);animation-play-state:paused" ></path>
<path d="M1966.778719611909 61.5 L1982.5574392238182 61.5 A15.5 15.5 0 0 1 1982.5574392238182 93.5 L1966.778719611909 93.5 A15.5 15.5 0 0 1 1966.778719611909 61.5" fill="#000" transform="matrix(1,0,0,1,-1176.9947509765625,0)" opacity="0.599079" style="transform:matrix(1, 0, 0, 1, -1176.99, 0);opacity:0.599079;animation-play-state:paused" ></path>
<path d="M2220 92.5 L880.6182336029699 92.5 A15.5 15.5 0 0 0 880.6182336029699 124.5 L2220 124.5" fill="#fff" transform="matrix(1,0,0,1,-1.9317004680633545,0)" style="transform:matrix(1, 0, 0, 1, -1.9317, 0);animation-play-state:paused" ></path>
<path d="M1026.8766232815678 92.5 L1042.0699762769511 92.5 A15.5 15.5 0 0 1 1042.0699762769511 124.5 L1026.8766232815678 124.5 A15.5 15.5 0 0 1 1026.8766232815678 92.5" fill="#fff" transform="matrix(1,0,0,1,0,0)" opacity="1" style="transform:matrix(1, 0, 0, 1, 0, 0);animation-play-state:paused" ></path>
<path d="M2220 123.5 L917.4435816141569 123.5 A15.5 15.5 0 0 1 917.4435816141569 155.5 L2220 155.5" fill="#fff" transform="matrix(1,0,0,1,21.17279815673828,0)" style="transform:matrix(1, 0, 0, 1, 21.1728, 0);animation-play-state:paused" ></path>
<path d="M1975.5137717202613 123.5 L2000.0275434405225 123.5 A15.5 15.5 0 0 1 2000.0275434405225 155.5 L1975.5137717202613 155.5 A15.5 15.5 0 0 1 1975.5137717202613 123.5" fill="#000" transform="matrix(1,0,0,1,-649.8623046875,0)" opacity="0.875576" style="transform:matrix(1, 0, 0, 1, -649.862, 0);opacity:0.875576;animation-play-state:paused" ></path>
<path d="M2220 154.5 L886.9450234713929 154.5 A15.5 15.5 0 0 0 886.9450234713929 186.5 L2220 186.5" fill="#fff" transform="matrix(1,0,0,1,-0.04329872131347656,0)" style="transform:matrix(1, 0, 0, 1, -0.0432987, 0);animation-play-state:paused" ></path>
<path d="M996.5799581087849 154.5 L1006.6533834022939 154.5 A15.5 15.5 0 0 1 1006.6533834022939 186.5 L996.5799581087849 186.5 A15.5 15.5 0 0 1 996.5799581087849 154.5" fill="#fff" transform="matrix(1,0,0,1,0,0)" opacity="0.737327" style="transform:matrix(1, 0, 0, 1, 0, 0);opacity:0.737327;animation-play-state:paused" ></path>
<path d="M2220 185.5 L903.7180868628643 185.5 A15.5 15.5 0 0 1 903.7180868628643 217.5 L2220 217.5" fill="#fff" transform="matrix(1,0,0,1,21.059925079345703,0)" style="transform:matrix(1, 0, 0, 1, 21.0599, 0);animation-play-state:paused" ></path>
<path d="M1990.7413448346617 185.5 L2030.4826896693235 185.5 A15.5 15.5 0 0 1 2030.4826896693235 217.5 L1990.7413448346617 217.5 A15.5 15.5 0 0 1 1990.7413448346617 185.5" fill="#000" transform="matrix(1,0,0,1,-337.9061584472656,0)" opacity="1" style="transform:matrix(1, 0, 0, 1, -337.906, 0);animation-play-state:paused" ></path>
<path d="M2220 216.5 L877.7766741180619 216.5 A15.5 15.5 0 0 0 877.7766741180619 248.5 L2220 248.5" fill="#fff" transform="matrix(1,0,0,1,-28.550264358520508,0)" style="transform:matrix(1, 0, 0, 1, -28.5503, 0);animation-play-state:paused" ></path>
<path d="M987.4969480127542 216.5 L1026.6385740205496 216.5 A15.5 15.5 0 0 1 1026.6385740205496 248.5 L987.4969480127542 248.5 A15.5 15.5 0 0 1 987.4969480127542 216.5" fill="#fff" transform="matrix(1,0,0,1,0,0)" opacity="0.921659" style="transform:matrix(1, 0, 0, 1, 0, 0);opacity:0.921659;animation-play-state:paused" ></path>
<path d="M2220 247.5 L927.4810059462449 247.5 A15.5 15.5 0 0 1 927.4810059462449 279.5 L2220 279.5" fill="#fff" transform="matrix(1,0,0,1,29.718828201293945,0)" style="transform:matrix(1, 0, 0, 1, 29.7188, 0);animation-play-state:paused" ></path>
<path d="M1971.5599190964679 247.5 L1992.1198381929357 247.5 A15.5 15.5 0 0 1 1992.1198381929357 279.5 L1971.5599190964679 279.5 A15.5 15.5 0 0 1 1971.5599190964679 247.5" fill="#000" transform="matrix(1,0,0,1,-1275.87109375,0)" opacity="0.322581" style="transform:matrix(1, 0, 0, 1, -1275.87, 0);opacity:0.322581;animation-play-state:paused" ></path>
<path d="M2220 278.5 L854.2305385102939 278.5 A15.5 15.5 0 0 0 854.2305385102939 310.5 L2220 310.5" fill="#fff" transform="matrix(1,0,0,1,-18.5020694732666,0)" style="transform:matrix(1, 0, 0, 1, -18.5021, 0);animation-play-state:paused" ></path>
<path d="M994.7059002061819 278.5 L1009.3958855956164 278.5 A15.5 15.5 0 0 1 1009.3958855956164 310.5 L994.7059002061819 310.5 A15.5 15.5 0 0 1 994.7059002061819 278.5" fill="#fff" transform="matrix(1,0,0,1,0,0)" opacity="0.184332" style="transform:matrix(1, 0, 0, 1, 0, 0);opacity:0.184332;animation-play-state:paused" ></path>
<path d="M2220 309.5 L936.1650839543113 309.5 A15.5 15.5 0 0 1 936.1650839543113 341.5 L2220 341.5" fill="#fff" transform="matrix(1,0,0,1,44.489837646484375,0)" style="transform:matrix(1, 0, 0, 1, 44.4898, 0);animation-play-state:paused" ></path>
<path d="M1966.9708555958994 309.5 L1982.9417111917987 309.5 A15.5 15.5 0 0 1 1982.9417111917987 341.5 L1966.9708555958994 341.5 A15.5 15.5 0 0 1 1966.9708555958994 309.5" fill="#000" transform="matrix(1,0,0,1,-1511.2520751953125,0)" opacity="0.046083" style="transform:matrix(1, 0, 0, 1, -1511.25, 0);opacity:0.046083;animation-play-state:paused" ></path>
<path d="M2220 340.5 L906.1316664716984 340.5 A15.5 15.5 0 0 0 906.1316664716984 372.5 L2220 372.5" fill="#fff" transform="matrix(1,0,0,1,-28.795642852783203,0)" style="transform:matrix(1, 0, 0, 1, -28.7956, 0);animation-play-state:paused" ></path>
<path d="M965.0667614268492 340.5 L993.3881814900917 340.5 A15.5 15.5 0 0 1 993.3881814900917 372.5 L965.0667614268492 372.5 A15.5 15.5 0 0 1 965.0667614268492 340.5" fill="#fff" transform="matrix(1,0,0,1,0,0)" opacity="1" style="transform:matrix(1, 0, 0, 1, 0, 0);animation-play-state:paused" ></path>
<path d="M2220 371.5 L929.8609377141444 371.5 A15.5 15.5 0 0 1 929.8609377141444 403.5 L2220 403.5" fill="#fff" transform="matrix(1,0,0,1,34.462547302246094,0)" style="transform:matrix(1, 0, 0, 1, 34.4625, 0);animation-play-state:paused" ></path>
<path d="M1980.2104508050686 371.5 L2009.4209016101372 371.5 A15.5 15.5 0 0 1 2009.4209016101372 403.5 L1980.2104508050686 403.5 A15.5 15.5 0 0 1 1980.2104508050686 371.5" fill="#000" transform="matrix(1,0,0,1,-669.2984619140625,0)" opacity="0.967742" style="transform:matrix(1, 0, 0, 1, -669.298, 0);opacity:0.967742;animation-play-state:paused" ></path>
<path d="M2220 402.5 L862.8679098303344 402.5 A15.5 15.5 0 0 0 862.8679098303344 434.5 L2220 434.5" fill="#fff" transform="matrix(1,0,0,1,-21.97571563720703,0)" style="transform:matrix(1, 0, 0, 1, -21.9757, 0);animation-play-state:paused" ></path>
<path d="M1013.6240433929044 402.5 L1030.3455029040267 402.5 A15.5 15.5 0 0 1 1030.3455029040267 434.5 L1013.6240433929044 434.5 A15.5 15.5 0 0 1 1013.6240433929044 402.5" fill="#fff" transform="matrix(1,0,0,1,0,0)" opacity="0.32258" style="transform:matrix(1, 0, 0, 1, 0, 0);opacity:0.32258;animation-play-state:paused" ></path>
<path d="M2220 433.5 L955.3012433004499 433.5 A15.5 15.5 0 0 1 955.3012433004499 465.5 L2220 465.5" fill="#fff" transform="matrix(1,0,0,1,41.69258117675781,0)" style="transform:matrix(1, 0, 0, 1, 41.6926, 0);animation-play-state:paused" ></path>
<path d="M1987.6834573663602 433.5 L2024.3669147327205 433.5 A15.5 15.5 0 0 1 2024.3669147327205 465.5 L1987.6834573663602 465.5 A15.5 15.5 0 0 1 1987.6834573663602 433.5" fill="#000" transform="matrix(1,0,0,1,-114.8828125,0)" opacity="1" style="transform:matrix(1, 0, 0, 1, -114.883, 0);animation-play-state:paused" ></path>
<path d="M2220 464.5 L907.307879953651 464.5 A15.5 15.5 0 0 0 907.307879953651 496.5 L2220 496.5" fill="#fff" transform="matrix(1,0,0,1,-26.7347469329834,0)" style="transform:matrix(1, 0, 0, 1, -26.7347, 0);animation-play-state:paused" ></path>
<path d="M1001.2636785627328 464.5 L1031.7491152812586 464.5 A15.5 15.5 0 0 1 1031.7491152812586 496.5 L1001.2636785627328 496.5 A15.5 15.5 0 0 1 1001.2636785627328 464.5" fill="#fff" transform="matrix(1,0,0,1,0,0)" opacity="0.921658" style="transform:matrix(1, 0, 0, 1, 0, 0);opacity:0.921658;animation-play-state:paused" ></path>
<path d="M2220 495.5 L949.7060468381992 495.5 A15.5 15.5 0 0 1 949.7060468381992 527.5 L2220 527.5" fill="#fff" transform="matrix(1,0,0,1,40.45503234863281,0)" style="transform:matrix(1, 0, 0, 1, 40.455, 0);animation-play-state:paused" ></path>
<path d="M1986.5294986597792 495.5 L2022.0589973195583 495.5 A15.5 15.5 0 0 1 2022.0589973195583 527.5 L1986.5294986597792 527.5 A15.5 15.5 0 0 1 1986.5294986597792 495.5" fill="#000" transform="matrix(1,0,0,1,-979.9744262695312,0)" opacity="0.506912" style="transform:matrix(1, 0, 0, 1, -979.974, 0);opacity:0.506912;animation-play-state:paused" ></path>
<path d="M2220 526.5 L938.7071940152895 526.5 A15.5 15.5 0 0 0 938.7071940152895 558.5 L2220 558.5" fill="#fff" transform="matrix(1,0,0,1,-14.237503051757812,0)" style="transform:matrix(1, 0, 0, 1, -14.2375, 0);animation-play-state:paused" ></path>
<path d="M1008.8925772142971 526.5 L1034.3435385646458 526.5 A15.5 15.5 0 0 1 1034.3435385646458 558.5 L1008.8925772142971 558.5 A15.5 15.5 0 0 1 1008.8925772142971 526.5" fill="#fff" transform="matrix(1,0,0,1,0,0)" opacity="0.0921655" style="transform:matrix(1, 0, 0, 1, 0, 0);opacity:0.0921655;animation-play-state:paused" ></path>
<path d="M2220 557.5 L962.9602933453834 557.5 A15.5 15.5 0 0 1 962.9602933453834 589.5 L2220 589.5" fill="#fff" transform="matrix(1,0,0,1,21.8317928314209,0)" style="transform:matrix(1, 0, 0, 1, 21.8318, 0);animation-play-state:paused" ></path>
<path d="M1962.4898829085537 557.5 L1973.9797658171074 557.5 A15.5 15.5 0 0 1 1973.9797658171074 589.5 L1962.4898829085537 589.5 A15.5 15.5 0 0 1 1962.4898829085537 557.5" fill="#000" transform="matrix(1,0,0,1,-1135.6851806640625,0)" opacity="0.737327" style="transform:matrix(1, 0, 0, 1, -1135.69, 0);opacity:0.737327;animation-play-state:paused" ></path>
<path d="M2220 588.5 L925.2399917939174 588.5 A15.5 15.5 0 0 0 925.2399917939174 620.5 L2220 620.5" fill="#fff" transform="matrix(1,0,0,1,-9.925300598144531,0)" style="transform:matrix(1, 0, 0, 1, -9.9253, 0);animation-play-state:paused" ></path>
<path d="M1040.2702633544816 588.5 L1053.1247960936855 588.5 A15.5 15.5 0 0 1 1053.1247960936855 620.5 L1040.2702633544816 620.5 A15.5 15.5 0 0 1 1040.2702633544816 588.5" fill="#fff" transform="matrix(1,0,0,1,0,0)" opacity="0.691244" style="transform:matrix(1, 0, 0, 1, 0, 0);opacity:0.691244;animation-play-state:paused" ></path>
<path d="M2220 619.5 L995.7080928289589 619.5 A15.5 15.5 0 0 1 995.7080928289589 651.5 L2220 651.5" fill="#fff" transform="matrix(1,0,0,1,27.11256217956543,0)" style="transform:matrix(1, 0, 0, 1, 27.1126, 0);animation-play-state:paused" ></path>
<path d="M1987.7502497565454 619.5 L2024.5004995130907 619.5 A15.5 15.5 0 0 1 2024.5004995130907 651.5 L1987.7502497565454 651.5 A15.5 15.5 0 0 1 1987.7502497565454 619.5" fill="#000" transform="matrix(1,0,0,1,-1902.23193359375,0)" opacity="0.276497" style="transform:matrix(1, 0, 0, 1, -1902.23, 0);opacity:0.276497;animation-play-state:paused" ></path>
<path d="M2220 650.5 L952.5800195841374 650.5 A15.5 15.5 0 0 0 952.5800195841374 682.5 L2220 682.5" fill="#fff" transform="matrix(1,0,0,1,-41.347537994384766,0)" style="transform:matrix(1, 0, 0, 1, -41.3475, 0);animation-play-state:paused" ></path>
<path d="M1004.3585758487818 650.5 L1027.78495754904 650.5 A15.5 15.5 0 0 1 1027.78495754904 682.5 L1004.3585758487818 682.5 A15.5 15.5 0 0 1 1004.3585758487818 650.5" fill="#fff" transform="matrix(1,0,0,1,0,0)" opacity="1" style="transform:matrix(1, 0, 0, 1, 0, 0);animation-play-state:paused" ></path>
<path d="M2220 681.5 L994.4102962383628 681.5 A15.5 15.5 0 0 1 994.4102962383628 713.5 L2220 713.5" fill="#fff" transform="matrix(1,0,0,1,14.864187240600586,0)" style="transform:matrix(1, 0, 0, 1, 14.8642, 0);animation-play-state:paused" ></path>
<path d="M1970.6613376887753 681.5 L1990.3226753775507 681.5 A15.5 15.5 0 0 1 1990.3226753775507 713.5 L1970.6613376887753 713.5 A15.5 15.5 0 0 1 1970.6613376887753 681.5" fill="#000" transform="matrix(1,0,0,1,-409.1015930175781,0)" opacity="1" style="transform:matrix(1, 0, 0, 1, -409.102, 0);animation-play-state:paused" ></path>
<path d="M2220 712.5 L950.042907436578 712.5 A15.5 15.5 0 0 0 950.042907436578 744.5 L2220 744.5" fill="#fff" transform="matrix(1,0,0,1,-8.035618782043457,0)" style="transform:matrix(1, 0, 0, 1, -8.03562, 0);animation-play-state:paused" ></path>
<path d="M1056.6749283338931 712.5 L1089.0216891347093 712.5 A15.5 15.5 0 0 1 1089.0216891347093 744.5 L1056.6749283338931 744.5 A15.5 15.5 0 0 1 1056.6749283338931 712.5" fill="#fff" transform="matrix(1,0,0,1,0,0)" opacity="1" style="transform:matrix(1, 0, 0, 1, 0, 0);animation-play-state:paused" ></path>
<path d="M2220 743.5 L978.2185901667734 743.5 A15.5 15.5 0 0 1 978.2185901667734 775.5 L2220 775.5" fill="#fff" transform="matrix(1,0,0,1,7.2471818923950195,0)" style="transform:matrix(1, 0, 0, 1, 7.24718, 0);animation-play-state:paused" ></path>
<path d="M1974.546222508806 743.5 L1998.0924450176121 743.5 A15.5 15.5 0 0 1 1998.0924450176121 775.5 L1974.546222508806 775.5 A15.5 15.5 0 0 1 1974.546222508806 743.5" fill="#000" transform="matrix(1,0,0,1,-471.9743957519531,0)" opacity="0.967742" style="transform:matrix(1, 0, 0, 1, -471.974, 0);opacity:0.967742;animation-play-state:paused" ></path>
<path d="M2220 774.5 L924.4790587873375 774.5 A15.5 15.5 0 0 0 924.4790587873375 806.5 L2220 806.5" fill="#fff" transform="matrix(1,0,0,1,-1.1748199462890625,0)" style="transform:matrix(1, 0, 0, 1, -1.17482, 0);animation-play-state:paused" ></path>
<path d="M1068.1284003800529 774.5 L1107.708002756478 774.5 A15.5 15.5 0 0 1 1107.708002756478 806.5 L1068.1284003800529 806.5 A15.5 15.5 0 0 1 1068.1284003800529 774.5" fill="#fff" transform="matrix(1,0,0,1,0,0)" opacity="0.829493" style="transform:matrix(1, 0, 0, 1, 0, 0);opacity:0.829493;animation-play-state:paused" ></path>
<path d="M2220 805.5 L983.2289974041927 805.5 A15.5 15.5 0 0 1 983.2289974041927 837.5 L2220 837.5" fill="#fff" transform="matrix(1,0,0,1,0.036826666444540024,0)" style="transform:matrix(1, 0, 0, 1, 0.0368267, 0);animation-play-state:paused" ></path>
<path d="M1965.9301019625982 805.5 L1980.8602039251964 805.5 A15.5 15.5 0 0 1 1980.8602039251964 837.5 L1965.9301019625982 837.5 A15.5 15.5 0 0 1 1965.9301019625982 805.5" fill="#000" transform="matrix(1,0,0,1,-49.99785232543945,0)" opacity="1" style="transform:matrix(1, 0, 0, 1, -49.9979, 0);animation-play-state:paused" ></path>
<path d="M2220 836.5 L952.0015870382784 836.5 A15.5 15.5 0 0 0 952.0015870382784 868.5 L2220 868.5" fill="#fff" transform="matrix(1,0,0,1,-36.99508285522461,0)" style="transform:matrix(1, 0, 0, 1, -36.9951, 0);animation-play-state:paused" ></path>
<path d="M1014.1136666886202 836.5 L1053.6280811378429 836.5 A15.5 15.5 0 0 1 1053.6280811378429 868.5 L1014.1136666886202 868.5 A15.5 15.5 0 0 1 1014.1136666886202 836.5" fill="#fff" transform="matrix(1,0,0,1,0,0)" opacity="0.552995" style="transform:matrix(1, 0, 0, 1, 0, 0);opacity:0.552995;animation-play-state:paused" ></path>
<path d="M2220 867.5 L972.3435998052339 867.5 A15.5 15.5 0 0 1 972.3435998052339 899.5 L2220 899.5" fill="#fff" transform="matrix(1,0,0,1,14.808337211608887,0)" style="transform:matrix(1, 0, 0, 1, 14.8083, 0);animation-play-state:paused" ></path>
<path d="M1979.350370669882 867.5 L2007.7007413397641 867.5 A15.5 15.5 0 0 1 2007.7007413397641 899.5 L1979.350370669882 899.5 A15.5 15.5 0 0 1 1979.350370669882 867.5" fill="#000" transform="matrix(1,0,0,1,-837.7210693359375,0)" opacity="0.829493" style="transform:matrix(1, 0, 0, 1, -837.721, 0);opacity:0.829493;animation-play-state:paused" ></path>
<path d="M2220 898.5 L894.4310529348534 898.5 A15.5 15.5 0 0 0 894.4310529348534 930.5 L2220 930.5" fill="#fff" transform="matrix(1,0,0,1,-1.9246597290039062,0)" style="transform:matrix(1, 0, 0, 1, -1.92466, 0);animation-play-state:paused" ></path>
<path d="M1034.1449342678404 898.5 L1073.8262028642785 898.5 A15.5 15.5 0 0 1 1073.8262028642785 930.5 L1034.1449342678404 930.5 A15.5 15.5 0 0 1 1034.1449342678404 898.5" fill="#fff" transform="matrix(1,0,0,1,0,0)" opacity="0.276498" style="transform:matrix(1, 0, 0, 1, 0, 0);opacity:0.276498;animation-play-state:paused" ></path>
<path d="M2220 929.5 L970.6115500552719 929.5 A15.5 15.5 0 0 1 970.6115500552719 961.5 L2220 961.5" fill="#fff" transform="matrix(1,0,0,1,9.479799270629883,0)" style="transform:matrix(1, 0, 0, 1, 9.4798, 0);animation-play-state:paused" ></path>
<path d="M1968.6276711183693 929.5 L1986.2553422367387 929.5 A15.5 15.5 0 0 1 1986.2553422367387 961.5 L1968.6276711183693 961.5 A15.5 15.5 0 0 1 1968.6276711183693 929.5" fill="#000" transform="matrix(1,0,0,1,-1443.92138671875,0)" opacity="0.414745" style="transform:matrix(1, 0, 0, 1, -1443.92, 0);opacity:0.414745;animation-play-state:paused" ></path></g></mask></defs>


<rect x="0" y="0" width="1920" height="937" fill="url(#ldbk-photon-l4ahtvscg3c-lg)" mask="url(#ldbk-photon-l4ahtvscg3c-mask)" style="animation-play-state:paused" ></rect></g></svg>