<?xml version="1.0" encoding="utf-8"?><svg xmlns="http://www.w3.org/2000/svg" xmlns:xlink="http://www.w3.org/1999/xlink" width="1920" height="937" preserveAspectRatio="xMidYMid" viewBox="0 0 1920 937" style="z-index:1;margin-right:-2px;display:block;background-repeat-y:initial;background-repeat-x:initial;background-color:rgb(59, 67, 104);animation-play-state:paused" ><g transform="translate(960,468.5) scale(1,1) translate(-960,-468.5)" style="transform:matrix(1, 0, 0, 1, 0, 0);animation-play-state:paused" ><defs style="animation-play-state:paused" ><linearGradient id="ldbk-photon-t4v8gnr6wxs-lg" x1="935" x2="1920" y1="0" y2="0" gradientUnits="userSpaceOnUse" style="animation-play-state:paused" ><stop stop-color="#9342c3" offset="0" style="animation-play-state:paused" ></stop>

    
<stop stop-color="#3b0769" offset="1" style="animation-play-state:paused" ></stop></linearGradient>

  
<mask id="ldbk-photon-t4v8gnr6wxs-mask" style="animation-play-state:paused" ><g style="animation-play-state:paused" ><path d="M2220 -0.5 L945.1662832862747 -0.5 A15.5 15.5 0 0 1 945.1662832862747 31.5 L2220 31.5" fill="#fff" transform="matrix(1,0,0,1,47.28070068359375,0)" style="transform:matrix(1, 0, 0, 1, 47.2807, 0);animation-play-state:paused" ></path>
<path d="M1973.4897158154884 -0.5 L1995.9794316309767 -0.5 A15.5 15.5 0 0 1 1995.9794316309767 31.5 L1973.4897158154884 31.5 A15.5 15.5 0 0 1 1973.4897158154884 -0.5" fill="#000" transform="matrix(1,0,0,1,0,0)" opacity="1" style="transform:matrix(1, 0, 0, 1, 0, 0);animation-play-state:paused" ></path>
<path d="M2220 30.5 L919.5039755579529 30.5 A15.5 15.5 0 0 0 919.5039755579529 62.5 L2220 62.5" fill="#fff" transform="matrix(1,0,0,1,-36.17755126953125,0)" style="transform:matrix(1, 0, 0, 1, -36.1776, 0);animation-play-state:paused" ></path>
<path d="M998.3326442412753 30.5 L1010.4641806570573 30.5 A15.5 15.5 0 0 1 1010.4641806570573 62.5 L998.3326442412753 62.5 A15.5 15.5 0 0 1 998.3326442412753 30.5" fill="#fff" transform="matrix(1,0,0,1,0,0)" opacity="1" style="transform:matrix(1, 0, 0, 1, 0, 0);animation-play-state:paused" ></path>
<path d="M2220 61.5 L946.3203568479331 61.5 A15.5 15.5 0 0 1 946.3203568479331 93.5 L2220 93.5" fill="#fff" transform="matrix(1,0,0,1,1.8717623949050903,0)" style="transform:matrix(1, 0, 0, 1, 1.87176, 0);animation-play-state:paused" ></path>
<path d="M1976.0530314469256 61.5 L2001.1060628938512 61.5 A15.5 15.5 0 0 1 2001.1060628938512 93.5 L1976.0530314469256 93.5 A15.5 15.5 0 0 1 1976.0530314469256 61.5" fill="#000" transform="matrix(1,0,0,1,-289.600341796875,0)" opacity="1" style="transform:matrix(1, 0, 0, 1, -289.6, 0);animation-play-state:paused" ></path>
<path d="M2220 92.5 L899.932853699271 92.5 A15.5 15.5 0 0 0 899.932853699271 124.5 L2220 124.5" fill="#fff" transform="matrix(1,0,0,1,-1.6521257162094116,0)" style="transform:matrix(1, 0, 0, 1, -1.65213, 0);animation-play-state:paused" ></path>
<path d="M1002.238354353507 92.5 L1035.7399083235641 92.5 A15.5 15.5 0 0 1 1035.7399083235641 124.5 L1002.238354353507 124.5 A15.5 15.5 0 0 1 1002.238354353507 92.5" fill="#fff" transform="matrix(1,0,0,1,0,0)" opacity="0.184332" style="transform:matrix(1, 0, 0, 1, 0, 0);opacity:0.184332;animation-play-state:paused" ></path>
<path d="M2220 123.5 L922.3375165054694 123.5 A15.5 15.5 0 0 1 922.3375165054694 155.5 L2220 155.5" fill="#fff" transform="matrix(1,0,0,1,3.250030517578125,0)" style="transform:matrix(1, 0, 0, 1, 3.25003, 0);animation-play-state:paused" ></path>
<path d="M1968.7388350490546 123.5 L1986.4776700981092 123.5 A15.5 15.5 0 0 1 1986.4776700981092 155.5 L1968.7388350490546 155.5 A15.5 15.5 0 0 1 1968.7388350490546 123.5" fill="#000" transform="matrix(1,0,0,1,-315.00555419921875,0)" opacity="1" style="transform:matrix(1, 0, 0, 1, -315.006, 0);animation-play-state:paused" ></path>
<path d="M2220 154.5 L915.8974707815257 154.5 A15.5 15.5 0 0 0 915.8974707815257 186.5 L2220 186.5" fill="#fff" transform="matrix(1,0,0,1,-0.6096611022949219,0)" style="transform:matrix(1, 0, 0, 1, -0.609661, 0);animation-play-state:paused" ></path>
<path d="M982.2721601820979 154.5 L1007.8378945276735 154.5 A15.5 15.5 0 0 1 1007.8378945276735 186.5 L982.2721601820979 186.5 A15.5 15.5 0 0 1 982.2721601820979 154.5" fill="#fff" transform="matrix(1,0,0,1,0,0)" opacity="0.737327" style="transform:matrix(1, 0, 0, 1, 0, 0);opacity:0.737327;animation-play-state:paused" ></path>
<path d="M2220 185.5 L935.1232667458352 185.5 A15.5 15.5 0 0 1 935.1232667458352 217.5 L2220 217.5" fill="#fff" transform="matrix(1,0,0,1,35.290714263916016,0)" style="transform:matrix(1, 0, 0, 1, 35.2907, 0);animation-play-state:paused" ></path>
<path d="M1968.2089633984335 185.5 L1985.417926796867 185.5 A15.5 15.5 0 0 1 1985.417926796867 217.5 L1968.2089633984335 217.5 A15.5 15.5 0 0 1 1968.2089633984335 185.5" fill="#000" transform="matrix(1,0,0,1,-976.5996704101562,0)" opacity="0.599078" style="transform:matrix(1, 0, 0, 1, -976.6, 0);opacity:0.599078;animation-play-state:paused" ></path>
<path d="M2220 216.5 L865.1832435059027 216.5 A15.5 15.5 0 0 0 865.1832435059027 248.5 L2220 248.5" fill="#fff" transform="matrix(1,0,0,1,-10.159819602966309,0)" style="transform:matrix(1, 0, 0, 1, -10.1598, 0);animation-play-state:paused" ></path>
<path d="M991.5023423251896 216.5 L1008.7266551932288 216.5 A15.5 15.5 0 0 1 1008.7266551932288 248.5 L991.5023423251896 248.5 A15.5 15.5 0 0 1 991.5023423251896 216.5" fill="#fff" transform="matrix(1,0,0,1,0,0)" opacity="0.921659" style="transform:matrix(1, 0, 0, 1, 0, 0);opacity:0.921659;animation-play-state:paused" ></path>
<path d="M2220 247.5 L887.0067810310552 247.5 A15.5 15.5 0 0 1 887.0067810310552 279.5 L2220 279.5" fill="#fff" transform="matrix(1,0,0,1,0.4272075295448303,0)" style="transform:matrix(1, 0, 0, 1, 0.427208, 0);animation-play-state:paused" ></path>
<path d="M1972.6591515995583 247.5 L1994.3183031991166 247.5 A15.5 15.5 0 0 1 1994.3183031991166 279.5 L1972.6591515995583 279.5 A15.5 15.5 0 0 1 1972.6591515995583 247.5" fill="#000" transform="matrix(1,0,0,1,-675.657958984375,0)" opacity="0.967742" style="transform:matrix(1, 0, 0, 1, -675.658, 0);opacity:0.967742;animation-play-state:paused" ></path>
<path d="M2220 278.5 L883.8766922468203 278.5 A15.5 15.5 0 0 0 883.8766922468203 310.5 L2220 310.5" fill="#fff" transform="matrix(1,0,0,1,-39.73894119262695,0)" style="transform:matrix(1, 0, 0, 1, -39.7389, 0);animation-play-state:paused" ></path>
<path d="M1003.6516745427236 278.5 L1015.7530114558965 278.5 A15.5 15.5 0 0 1 1015.7530114558965 310.5 L1003.6516745427236 310.5 A15.5 15.5 0 0 1 1003.6516745427236 278.5" fill="#fff" transform="matrix(1,0,0,1,0,0)" opacity="0.552995" style="transform:matrix(1, 0, 0, 1, 0, 0);opacity:0.552995;animation-play-state:paused" ></path>
<path d="M2220 309.5 L917.3726447080517 309.5 A15.5 15.5 0 0 1 917.3726447080517 341.5 L2220 341.5" fill="#fff" transform="matrix(1,0,0,1,44.16809844970703,0)" style="transform:matrix(1, 0, 0, 1, 44.1681, 0);animation-play-state:paused" ></path>
<path d="M1964.7882536236648 309.5 L1978.5765072473296 309.5 A15.5 15.5 0 0 1 1978.5765072473296 341.5 L1964.7882536236648 341.5 A15.5 15.5 0 0 1 1964.7882536236648 309.5" fill="#000" transform="matrix(1,0,0,1,-1896.1419677734375,0)" opacity="0.138249" style="transform:matrix(1, 0, 0, 1, -1896.14, 0);opacity:0.138249;animation-play-state:paused" ></path>
<path d="M2220 340.5 L890.086067491399 340.5 A15.5 15.5 0 0 0 890.086067491399 372.5 L2220 372.5" fill="#fff" transform="matrix(1,0,0,1,-29.541709899902344,0)" style="transform:matrix(1, 0, 0, 1, -29.5417, 0);animation-play-state:paused" ></path>
<path d="M986.567125488494 340.5 L1024.9924608239203 340.5 A15.5 15.5 0 0 1 1024.9924608239203 372.5 L986.567125488494 372.5 A15.5 15.5 0 0 1 986.567125488494 340.5" fill="#fff" transform="matrix(1,0,0,1,0,0)" opacity="1" style="transform:matrix(1, 0, 0, 1, 0, 0);animation-play-state:paused" ></path>
<path d="M2220 371.5 L940.8356211340431 371.5 A15.5 15.5 0 0 1 940.8356211340431 403.5 L2220 403.5" fill="#fff" transform="matrix(1,0,0,1,11.72342300415039,0)" style="transform:matrix(1, 0, 0, 1, 11.7234, 0);animation-play-state:paused" ></path>
<path d="M1973.7617235541418 371.5 L1996.5234471082836 371.5 A15.5 15.5 0 0 1 1996.5234471082836 403.5 L1973.7617235541418 403.5 A15.5 15.5 0 0 1 1973.7617235541418 371.5" fill="#000" transform="matrix(1,0,0,1,-733.6101684570312,0)" opacity="0.737327" style="transform:matrix(1, 0, 0, 1, -733.61, 0);opacity:0.737327;animation-play-state:paused" ></path>
<path d="M2220 402.5 L919.6000311872248 402.5 A15.5 15.5 0 0 0 919.6000311872248 434.5 L2220 434.5" fill="#fff" transform="matrix(1,0,0,1,-13.036550521850586,0)" style="transform:matrix(1, 0, 0, 1, -13.0366, 0);animation-play-state:paused" ></path>
<path d="M980.728248386171 402.5 L1002.4573190805156 402.5 A15.5 15.5 0 0 1 1002.4573190805156 434.5 L980.728248386171 434.5 A15.5 15.5 0 0 1 980.728248386171 402.5" fill="#fff" transform="matrix(1,0,0,1,0,0)" opacity="0.32258" style="transform:matrix(1, 0, 0, 1, 0, 0);opacity:0.32258;animation-play-state:paused" ></path>
<path d="M2220 433.5 L941.5608317950602 433.5 A15.5 15.5 0 0 1 941.5608317950602 465.5 L2220 465.5" fill="#fff" transform="matrix(1,0,0,1,32.88773727416992,0)" style="transform:matrix(1, 0, 0, 1, 32.8877, 0);animation-play-state:paused" ></path>
<path d="M1975.2122120795896 433.5 L1999.4244241591791 433.5 A15.5 15.5 0 0 1 1999.4244241591791 465.5 L1975.2122120795896 465.5 A15.5 15.5 0 0 1 1975.2122120795896 433.5" fill="#000" transform="matrix(1,0,0,1,-1344.7794189453125,0)" opacity="0.414747" style="transform:matrix(1, 0, 0, 1, -1344.78, 0);opacity:0.414747;animation-play-state:paused" ></path>
<path d="M2220 464.5 L881.3282341096376 464.5 A15.5 15.5 0 0 0 881.3282341096376 496.5 L2220 496.5" fill="#fff" transform="matrix(1,0,0,1,-4.523443222045898,0)" style="transform:matrix(1, 0, 0, 1, -4.52344, 0);animation-play-state:paused" ></path>
<path d="M1030.635797860665 464.5 L1062.5357087548437 464.5 A15.5 15.5 0 0 1 1062.5357087548437 496.5 L1030.635797860665 496.5 A15.5 15.5 0 0 1 1030.635797860665 464.5" fill="#fff" transform="matrix(1,0,0,1,0,0)" opacity="0.138249" style="transform:matrix(1, 0, 0, 1, 0, 0);opacity:0.138249;animation-play-state:paused" ></path>
<path d="M2220 495.5 L918.2999260121751 495.5 A15.5 15.5 0 0 1 918.2999260121751 527.5 L2220 527.5" fill="#fff" transform="matrix(1,0,0,1,4.065011501312256,0)" style="transform:matrix(1, 0, 0, 1, 4.06501, 0);animation-play-state:paused" ></path>
<path d="M1963.5150710867476 495.5 L1976.0301421734953 495.5 A15.5 15.5 0 0 1 1976.0301421734953 527.5 L1963.5150710867476 527.5 A15.5 15.5 0 0 1 1963.5150710867476 495.5" fill="#000" transform="matrix(1,0,0,1,-966.0494995117188,0)" opacity="0.506912" style="transform:matrix(1, 0, 0, 1, -966.049, 0);opacity:0.506912;animation-play-state:paused" ></path>
<path d="M2220 526.5 L889.1799393083286 526.5 A15.5 15.5 0 0 0 889.1799393083286 558.5 L2220 558.5" fill="#fff" transform="matrix(1,0,0,1,-6.031352519989014,0)" style="transform:matrix(1, 0, 0, 1, -6.03135, 0);animation-play-state:paused" ></path>
<path d="M1035.159198643378 526.5 L1051.722958103484 526.5 A15.5 15.5 0 0 1 1051.722958103484 558.5 L1035.159198643378 558.5 A15.5 15.5 0 0 1 1035.159198643378 526.5" fill="#fff" transform="matrix(1,0,0,1,0,0)" opacity="0.0921655" style="transform:matrix(1, 0, 0, 1, 0, 0);opacity:0.0921655;animation-play-state:paused" ></path>
<path d="M2220 557.5 L919.3929093780179 557.5 A15.5 15.5 0 0 1 919.3929093780179 589.5 L2220 589.5" fill="#fff" transform="matrix(1,0,0,1,18.32241439819336,0)" style="transform:matrix(1, 0, 0, 1, 18.3224, 0);animation-play-state:paused" ></path>
<path d="M1986.6850474986227 557.5 L2022.3700949972454 557.5 A15.5 15.5 0 0 1 2022.3700949972454 589.5 L1986.6850474986227 589.5 A15.5 15.5 0 0 1 1986.6850474986227 557.5" fill="#000" transform="matrix(1,0,0,1,-463.75408935546875,0)" opacity="1" style="transform:matrix(1, 0, 0, 1, -463.754, 0);animation-play-state:paused" ></path>
<path d="M2220 588.5 L918.9403490516718 588.5 A15.5 15.5 0 0 0 918.9403490516718 620.5 L2220 620.5" fill="#fff" transform="matrix(1,0,0,1,-26.744659423828125,0)" style="transform:matrix(1, 0, 0, 1, -26.7447, 0);animation-play-state:paused" ></path>
<path d="M1063.1775214217812 588.5 L1090.1897756923781 588.5 A15.5 15.5 0 0 1 1090.1897756923781 620.5 L1063.1775214217812 620.5 A15.5 15.5 0 0 1 1063.1775214217812 588.5" fill="#fff" transform="matrix(1,0,0,1,0,0)" opacity="0.691244" style="transform:matrix(1, 0, 0, 1, 0, 0);opacity:0.691244;animation-play-state:paused" ></path>
<path d="M2220 619.5 L988.1014971712597 619.5 A15.5 15.5 0 0 1 988.1014971712597 651.5 L2220 651.5" fill="#fff" transform="matrix(1,0,0,1,27.008625030517578,0)" style="transform:matrix(1, 0, 0, 1, 27.0086, 0);animation-play-state:paused" ></path>
<path d="M1980.1225765560744 619.5 L2009.2451531121487 619.5 A15.5 15.5 0 0 1 2009.2451531121487 651.5 L1980.1225765560744 651.5 A15.5 15.5 0 0 1 1980.1225765560744 619.5" fill="#000" transform="matrix(1,0,0,1,-1386.8006591796875,0)" opacity="0.184332" style="transform:matrix(1, 0, 0, 1, -1386.8, 0);opacity:0.184332;animation-play-state:paused" ></path>
<path d="M2220 650.5 L968.138739003656 650.5 A15.5 15.5 0 0 0 968.138739003656 682.5 L2220 682.5" fill="#fff" transform="matrix(1,0,0,1,-46.827945709228516,0)" style="transform:matrix(1, 0, 0, 1, -46.8279, 0);animation-play-state:paused" ></path>
<path d="M1027.632036370845 650.5 L1051.655650354917 650.5 A15.5 15.5 0 0 1 1051.655650354917 682.5 L1027.632036370845 682.5 A15.5 15.5 0 0 1 1027.632036370845 650.5" fill="#fff" transform="matrix(1,0,0,1,0,0)" opacity="1" style="transform:matrix(1, 0, 0, 1, 0, 0);animation-play-state:paused" ></path>
<path d="M2220 681.5 L996.8978463379705 681.5 A15.5 15.5 0 0 1 996.8978463379705 713.5 L2220 713.5" fill="#fff" transform="matrix(1,0,0,1,28.908721923828125,0)" style="transform:matrix(1, 0, 0, 1, 28.9087, 0);animation-play-state:paused" ></path>
<path d="M1974.842146077262 681.5 L1998.684292154524 681.5 A15.5 15.5 0 0 1 1998.684292154524 713.5 L1974.842146077262 713.5 A15.5 15.5 0 0 1 1974.842146077262 681.5" fill="#000" transform="matrix(1,0,0,1,-466.0419921875,0)" opacity="1" style="transform:matrix(1, 0, 0, 1, -466.042, 0);animation-play-state:paused" ></path>
<path d="M2220 712.5 L958.2894506784362 712.5 A15.5 15.5 0 0 0 958.2894506784362 744.5 L2220 744.5" fill="#fff" transform="matrix(1,0,0,1,-18.72112274169922,0)" style="transform:matrix(1, 0, 0, 1, -18.7211, 0);animation-play-state:paused" ></path>
<path d="M1027.9588815871846 712.5 L1039.5670509782838 712.5 A15.5 15.5 0 0 1 1039.5670509782838 744.5 L1027.9588815871846 744.5 A15.5 15.5 0 0 1 1027.9588815871846 712.5" fill="#fff" transform="matrix(1,0,0,1,0,0)" opacity="1" style="transform:matrix(1, 0, 0, 1, 0, 0);animation-play-state:paused" ></path>
<path d="M2220 743.5 L992.3161229236943 743.5 A15.5 15.5 0 0 1 992.3161229236943 775.5 L2220 775.5" fill="#fff" transform="matrix(1,0,0,1,43.75846862792969,0)" style="transform:matrix(1, 0, 0, 1, 43.7585, 0);animation-play-state:paused" ></path>
<path d="M1978.7541650462779 743.5 L2006.5083300925558 743.5 A15.5 15.5 0 0 1 2006.5083300925558 775.5 L1978.7541650462779 775.5 A15.5 15.5 0 0 1 1978.7541650462779 743.5" fill="#000" transform="matrix(1,0,0,1,-1392.591064453125,0)" opacity="0.506913" style="transform:matrix(1, 0, 0, 1, -1392.59, 0);opacity:0.506913;animation-play-state:paused" ></path>
<path d="M2220 774.5 L951.6917673160817 774.5 A15.5 15.5 0 0 0 951.6917673160817 806.5 L2220 806.5" fill="#fff" transform="matrix(1,0,0,1,-1.8581733703613281,0)" style="transform:matrix(1, 0, 0, 1, -1.85817, 0);animation-play-state:paused" ></path>
<path d="M1051.4316511628735 774.5 L1087.2671956060676 774.5 A15.5 15.5 0 0 1 1087.2671956060676 806.5 L1051.4316511628735 806.5 A15.5 15.5 0 0 1 1051.4316511628735 774.5" fill="#fff" transform="matrix(1,0,0,1,0,0)" opacity="0.230415" style="transform:matrix(1, 0, 0, 1, 0, 0);opacity:0.230415;animation-play-state:paused" ></path>
<path d="M2220 805.5 L958.7232874937561 805.5 A15.5 15.5 0 0 1 958.7232874937561 837.5 L2220 837.5" fill="#fff" transform="matrix(1,0,0,1,0.06621724367141724,0)" style="transform:matrix(1, 0, 0, 1, 0.0662172, 0);animation-play-state:paused" ></path>
<path d="M1982.6467269184886 805.5 L2014.2934538369773 805.5 A15.5 15.5 0 0 1 2014.2934538369773 837.5 L1982.6467269184886 837.5 A15.5 15.5 0 0 1 1982.6467269184886 805.5" fill="#000" transform="matrix(1,0,0,1,-1082.1859130859375,0)" opacity="0.64516" style="transform:matrix(1, 0, 0, 1, -1082.19, 0);opacity:0.64516;animation-play-state:paused" ></path>
<path d="M2220 836.5 L930.9403178800319 836.5 A15.5 15.5 0 0 0 930.9403178800319 868.5 L2220 868.5" fill="#fff" transform="matrix(1,0,0,1,-28.421140670776367,0)" style="transform:matrix(1, 0, 0, 1, -28.4211, 0);animation-play-state:paused" ></path>
<path d="M1017.0774063300707 836.5 L1039.2740373018346 836.5 A15.5 15.5 0 0 1 1039.2740373018346 868.5 L1017.0774063300707 868.5 A15.5 15.5 0 0 1 1017.0774063300707 836.5" fill="#fff" transform="matrix(1,0,0,1,0,0)" opacity="1" style="transform:matrix(1, 0, 0, 1, 0, 0);animation-play-state:paused" ></path>
<path d="M2220 867.5 L975.6237236855007 867.5 A15.5 15.5 0 0 1 975.6237236855007 899.5 L2220 899.5" fill="#fff" transform="matrix(1,0,0,1,1.9293022155761719,0)" style="transform:matrix(1, 0, 0, 1, 1.9293, 0);animation-play-state:paused" ></path>
<path d="M1983.6590893389978 867.5 L2016.3181786779955 867.5 A15.5 15.5 0 0 1 2016.3181786779955 899.5 L1983.6590893389978 899.5 A15.5 15.5 0 0 1 1983.6590893389978 867.5" fill="#000" transform="matrix(1,0,0,1,-1239.9664306640625,0)" opacity="0.414747" style="transform:matrix(1, 0, 0, 1, -1239.97, 0);opacity:0.414747;animation-play-state:paused" ></path>
<path d="M2220 898.5 L946.7148316644141 898.5 A15.5 15.5 0 0 0 946.7148316644141 930.5 L2220 930.5" fill="#fff" transform="matrix(1,0,0,1,-2.834230422973633,0)" style="transform:matrix(1, 0, 0, 1, -2.83423, 0);animation-play-state:paused" ></path>
<path d="M1006.9248078101292 898.5 L1031.5727437090313 898.5 A15.5 15.5 0 0 1 1031.5727437090313 930.5 L1006.9248078101292 930.5 A15.5 15.5 0 0 1 1006.9248078101292 898.5" fill="#fff" transform="matrix(1,0,0,1,0,0)" opacity="0.552995" style="transform:matrix(1, 0, 0, 1, 0, 0);opacity:0.552995;animation-play-state:paused" ></path>
<path d="M2220 929.5 L969.3262309241794 929.5 A15.5 15.5 0 0 1 969.3262309241794 961.5 L2220 961.5" fill="#fff" transform="matrix(1,0,0,1,22.145362854003906,0)" style="transform:matrix(1, 0, 0, 1, 22.1454, 0);animation-play-state:paused" ></path>
<path d="M1969.2378138580289 929.5 L1987.4756277160577 929.5 A15.5 15.5 0 0 1 1987.4756277160577 961.5 L1969.2378138580289 961.5 A15.5 15.5 0 0 1 1969.2378138580289 929.5" fill="#000" transform="matrix(1,0,0,1,-1633.015869140625,0)" opacity="0.276498" style="transform:matrix(1, 0, 0, 1, -1633.02, 0);opacity:0.276498;animation-play-state:paused" ></path></g></mask></defs>


<rect x="0" y="0" width="1920" height="937" fill="url(#ldbk-photon-t4v8gnr6wxs-lg)" mask="url(#ldbk-photon-t4v8gnr6wxs-mask)" style="animation-play-state:paused" ></rect></g></svg>